<?xml version="1.0" encoding="UTF-8" standalone="no"?>
<!-- Created with Inkscape (http://www.inkscape.org/) -->

<svg
   width="210mm"
   height="297mm"
   viewBox="0 0 210 297"
   version="1.1"
   id="svg5"
   inkscape:version="1.1.1 (c3084ef, 2021-09-22)"
   sodipodi:docname="BarcodeIcon.svg"
   xmlns:inkscape="http://www.inkscape.org/namespaces/inkscape"
   xmlns:sodipodi="http://sodipodi.sourceforge.net/DTD/sodipodi-0.dtd"
   xmlns="http://www.w3.org/2000/svg"
   xmlns:svg="http://www.w3.org/2000/svg">
  <sodipodi:namedview
     id="namedview7"
     pagecolor="#ffffff"
     bordercolor="#666666"
     borderopacity="1.0"
     inkscape:pageshadow="2"
     inkscape:pageopacity="0.0"
     inkscape:pagecheckerboard="0"
     inkscape:document-units="mm"
     showgrid="false"
     inkscape:zoom="0.64052329"
     inkscape:cx="104.60197"
     inkscape:cy="323.17326"
     inkscape:window-width="2056"
     inkscape:window-height="1206"
     inkscape:window-x="0"
     inkscape:window-y="44"
     inkscape:window-maximized="1"
     inkscape:current-layer="layer1" />
  <defs
     id="defs2" />
  <g
     inkscape:label="Layer 1"
     inkscape:groupmode="layer"
     id="layer1">
    <g
       id="g1142"
       inkscape:export-filename="/Users/deepspace/Desktop/PositonScan_Black.png"
       inkscape:export-xdpi="12.53"
       inkscape:export-ydpi="12.53">
      <g
         id="g581"
         transform="translate(-2.0655482,-1.6522229)"
         style="fill:#000000">
        <path
           id="rect31"
           style="fill:#000000;fill-rule:evenodd;stroke-width:1.19469"
           d="m 187.34766,293.50977 c -17.29836,0 -31.22461,13.92625 -31.22461,31.22461 v 148.3164 c 0,17.29836 13.92625,31.22461 31.22461,31.22461 h 148.31445 c 17.29836,0 31.22461,-13.92625 31.22461,-31.22461 v -148.3164 c 0,-17.29836 -13.92625,-31.22461 -31.22461,-31.22461 z m -1.5625,29.66406 h 151.43945 v 151.4375 H 185.78516 Z"
           transform="scale(0.26458333)" />
        <rect
           style="fill:#000000;stroke-width:0.201083"
           id="rect479"
           width="15.6968"
           height="15.6968"
           x="61.341434"
           y="97.691925" />
      </g>
      <g
         id="g587"
         transform="translate(-2.0655482,64.182952)"
         style="fill:#000000">
        <path
           id="path583"
           style="fill:#000000;fill-rule:evenodd;stroke-width:1.19469"
           d="m 187.34766,293.50977 c -17.29836,0 -31.22461,13.92625 -31.22461,31.22461 v 148.3164 c 0,17.29836 13.92625,31.22461 31.22461,31.22461 h 148.31445 c 17.29836,0 31.22461,-13.92625 31.22461,-31.22461 v -148.3164 c 0,-17.29836 -13.92625,-31.22461 -31.22461,-31.22461 z m -1.5625,29.66406 h 151.43945 v 151.4375 H 185.78516 Z"
           transform="scale(0.26458333)" />
        <rect
           style="fill:#000000;stroke-width:0.201083"
           id="rect585"
           width="15.6968"
           height="15.6968"
           x="61.341434"
           y="97.691925" />
      </g>
      <g
         id="g593"
         transform="translate(63.770143,-1.6522229)"
         style="fill:#000000">
        <path
           id="path589"
           style="fill:#000000;fill-rule:evenodd;stroke-width:1.19469"
           d="m 187.34766,293.50977 c -17.29836,0 -31.22461,13.92625 -31.22461,31.22461 v 148.3164 c 0,17.29836 13.92625,31.22461 31.22461,31.22461 h 148.31445 c 17.29836,0 31.22461,-13.92625 31.22461,-31.22461 v -148.3164 c 0,-17.29836 -13.92625,-31.22461 -31.22461,-31.22461 z m -1.5625,29.66406 h 151.43945 v 151.4375 H 185.78516 Z"
           transform="scale(0.26458333)" />
        <rect
           style="fill:#000000;stroke-width:0.201083"
           id="rect591"
           width="15.6968"
           height="15.6968"
           x="61.341434"
           y="97.691925" />
      </g>
      <g
         id="g851"
         transform="translate(-6.2460563,-0.25654333)"
         style="fill:#000000">
        <rect
           style="fill:#000000;stroke-width:0.201083"
           id="rect597"
           width="15.6968"
           height="15.6968"
           x="131.35764"
           y="162.13142" />
        <rect
           style="fill:#000000;stroke-width:0.201083"
           id="rect758"
           width="15.6968"
           height="15.6968"
           x="111.32375"
           y="142.09729" />
        <rect
           style="fill:#000000;stroke-width:0.201083"
           id="rect760"
           width="15.6968"
           height="15.6968"
           x="151.39151"
           y="142.09729" />
        <rect
           style="fill:#000000;stroke-width:0.201083"
           id="rect762"
           width="15.6968"
           height="15.6968"
           x="151.39151"
           y="182.16556" />
        <rect
           style="fill:#000000;stroke-width:0.201083"
           id="rect764"
           width="15.6968"
           height="15.6968"
           x="111.32375"
           y="182.16556" />
      </g>
    </g>
    <g
       id="g1174"
       transform="matrix(1,0,0,0.99999798,-176.38248,-5.369805)"
       style="fill:#f9f9f9"
       inkscape:export-filename="/Users/deepspace/Desktop/PositionScan_White.png"
       inkscape:export-xdpi="12.53"
       inkscape:export-ydpi="12.53">
      <g
         id="g1148"
         transform="translate(-2.0655482,-1.6522229)"
         style="fill:#f9f9f9">
        <path
           id="path1144"
           style="fill:#f9f9f9;fill-rule:evenodd;stroke-width:1.19469"
           d="m 187.34766,293.50977 c -17.29836,0 -31.22461,13.92625 -31.22461,31.22461 v 148.3164 c 0,17.29836 13.92625,31.22461 31.22461,31.22461 h 148.31445 c 17.29836,0 31.22461,-13.92625 31.22461,-31.22461 v -148.3164 c 0,-17.29836 -13.92625,-31.22461 -31.22461,-31.22461 z m -1.5625,29.66406 h 151.43945 v 151.4375 H 185.78516 Z"
           transform="scale(0.26458333)" />
        <rect
           style="fill:#f9f9f9;stroke-width:0.201083"
           id="rect1146"
           width="15.6968"
           height="15.6968"
           x="61.341434"
           y="97.691925" />
      </g>
      <g
         id="g1154"
         transform="translate(-2.0655482,64.182952)"
         style="fill:#f9f9f9">
        <path
           id="path1150"
           style="fill:#f9f9f9;fill-rule:evenodd;stroke-width:1.19469"
           d="m 187.34766,293.50977 c -17.29836,0 -31.22461,13.92625 -31.22461,31.22461 v 148.3164 c 0,17.29836 13.92625,31.22461 31.22461,31.22461 h 148.31445 c 17.29836,0 31.22461,-13.92625 31.22461,-31.22461 v -148.3164 c 0,-17.29836 -13.92625,-31.22461 -31.22461,-31.22461 z m -1.5625,29.66406 h 151.43945 v 151.4375 H 185.78516 Z"
           transform="scale(0.26458333)" />
        <rect
           style="fill:#f9f9f9;stroke-width:0.201083"
           id="rect1152"
           width="15.6968"
           height="15.6968"
           x="61.341434"
           y="97.691925" />
      </g>
      <g
         id="g1160"
         transform="translate(63.770143,-1.6522229)"
         style="fill:#f9f9f9">
        <path
           id="path1156"
           style="fill:#f9f9f9;fill-rule:evenodd;stroke-width:1.19469"
           d="m 187.34766,293.50977 c -17.29836,0 -31.22461,13.92625 -31.22461,31.22461 v 148.3164 c 0,17.29836 13.92625,31.22461 31.22461,31.22461 h 148.31445 c 17.29836,0 31.22461,-13.92625 31.22461,-31.22461 v -148.3164 c 0,-17.29836 -13.92625,-31.22461 -31.22461,-31.22461 z m -1.5625,29.66406 h 151.43945 v 151.4375 H 185.78516 Z"
           transform="scale(0.26458333)" />
        <rect
           style="fill:#f9f9f9;stroke-width:0.201083"
           id="rect1158"
           width="15.6968"
           height="15.6968"
           x="61.341434"
           y="97.691925" />
      </g>
      <g
         id="g1172"
         transform="translate(-6.2460563,-0.25654333)"
         style="fill:#f9f9f9">
        <rect
           style="fill:#f9f9f9;stroke-width:0.201083"
           id="rect1162"
           width="15.6968"
           height="15.6968"
           x="131.35764"
           y="162.13142" />
        <rect
           style="fill:#f9f9f9;stroke-width:0.201083"
           id="rect1164"
           width="15.6968"
           height="15.6968"
           x="111.32375"
           y="142.09729" />
        <rect
           style="fill:#f9f9f9;stroke-width:0.201083"
           id="rect1166"
           width="15.6968"
           height="15.6968"
           x="151.39151"
           y="142.09729" />
        <rect
           style="fill:#f9f9f9;stroke-width:0.201083"
           id="rect1168"
           width="15.6968"
           height="15.6968"
           x="151.39151"
           y="182.16556" />
        <rect
           style="fill:#f9f9f9;stroke-width:0.201083"
           id="rect1170"
           width="15.6968"
           height="15.6968"
           x="111.32375"
           y="182.16556" />
      </g>
    </g>
    <g
       id="g6787"
       transform="matrix(1,0,0,0.99999798,-73.683799,-134.91792)"
       style="fill:#ff2a2a"
       inkscape:export-filename="/Users/deepspace/Desktop/PositonScan_Red.png"
       inkscape:export-xdpi="12.53"
       inkscape:export-ydpi="12.53">
      <g
         id="g6761"
         transform="translate(-2.0655482,-1.6522229)"
         style="fill:#ff2a2a">
        <path
           id="path6757"
           style="fill:#ff2a2a;fill-rule:evenodd;stroke-width:1.19469"
           d="m 187.34766,293.50977 c -17.29836,0 -31.22461,13.92625 -31.22461,31.22461 v 148.3164 c 0,17.29836 13.92625,31.22461 31.22461,31.22461 h 148.31445 c 17.29836,0 31.22461,-13.92625 31.22461,-31.22461 v -148.3164 c 0,-17.29836 -13.92625,-31.22461 -31.22461,-31.22461 z m -1.5625,29.66406 h 151.43945 v 151.4375 H 185.78516 Z"
           transform="scale(0.26458333)" />
        <rect
           style="fill:#ff2a2a;stroke-width:0.201083"
           id="rect6759"
           width="15.6968"
           height="15.6968"
           x="61.341434"
           y="97.691925" />
      </g>
      <g
         id="g6767"
         transform="translate(-2.0655482,64.182952)"
         style="fill:#ff2a2a">
        <path
           id="path6763"
           style="fill:#ff2a2a;fill-rule:evenodd;stroke-width:1.19469"
           d="m 187.34766,293.50977 c -17.29836,0 -31.22461,13.92625 -31.22461,31.22461 v 148.3164 c 0,17.29836 13.92625,31.22461 31.22461,31.22461 h 148.31445 c 17.29836,0 31.22461,-13.92625 31.22461,-31.22461 v -148.3164 c 0,-17.29836 -13.92625,-31.22461 -31.22461,-31.22461 z m -1.5625,29.66406 h 151.43945 v 151.4375 H 185.78516 Z"
           transform="scale(0.26458333)" />
        <rect
           style="fill:#ff2a2a;stroke-width:0.201083"
           id="rect6765"
           width="15.6968"
           height="15.6968"
           x="61.341434"
           y="97.691925" />
      </g>
      <g
         id="g6773"
         transform="translate(63.770143,-1.6522229)"
         style="fill:#ff2a2a">
        <path
           id="path6769"
           style="fill:#ff2a2a;fill-rule:evenodd;stroke-width:1.19469"
           d="m 187.34766,293.50977 c -17.29836,0 -31.22461,13.92625 -31.22461,31.22461 v 148.3164 c 0,17.29836 13.92625,31.22461 31.22461,31.22461 h 148.31445 c 17.29836,0 31.22461,-13.92625 31.22461,-31.22461 v -148.3164 c 0,-17.29836 -13.92625,-31.22461 -31.22461,-31.22461 z m -1.5625,29.66406 h 151.43945 v 151.4375 H 185.78516 Z"
           transform="scale(0.26458333)" />
        <rect
           style="fill:#ff2a2a;stroke-width:0.201083"
           id="rect6771"
           width="15.6968"
           height="15.6968"
           x="61.341434"
           y="97.691925" />
      </g>
      <g
         id="g6785"
         transform="translate(-6.2460563,-0.25654333)"
         style="fill:#ff2a2a">
        <rect
           style="fill:#ff2a2a;stroke-width:0.201083"
           id="rect6775"
           width="15.6968"
           height="15.6968"
           x="131.35764"
           y="162.13142" />
        <rect
           style="fill:#ff2a2a;stroke-width:0.201083"
           id="rect6777"
           width="15.6968"
           height="15.6968"
           x="111.32375"
           y="142.09729" />
        <rect
           style="fill:#ff2a2a;stroke-width:0.201083"
           id="rect6779"
           width="15.6968"
           height="15.6968"
           x="151.39151"
           y="142.09729" />
        <rect
           style="fill:#ff2a2a;stroke-width:0.201083"
           id="rect6781"
           width="15.6968"
           height="15.6968"
           x="151.39151"
           y="182.16556" />
        <rect
           style="fill:#ff2a2a;stroke-width:0.201083"
           id="rect6783"
           width="15.6968"
           height="15.6968"
           x="111.32375"
           y="182.16556" />
      </g>
    </g>
  </g>
</svg>
